<svg xmlns="http://www.w3.org/2000/svg" viewBox="632 192 116 116" width="240" height="240" role="img" aria-label="Melkor obsidian forge plate — an ember-lit machined hexagon containing a faceted, M-shaped twin-peak massif.">
  <title>Melkor — Obsidian Forge Plate</title>
  <!--
    Extracted from the Melkor node in Sepehr Mahmoudian's GitHub profile graph.
    Source: sepahead/sepahead@58602ded76613c3e77474522e0fc02edd95cc951
    Generator: scripts/work-graph.mjs (Melkor "OBSIDIAN FORGE PLATE")
  -->
  <defs>
    <filter id="nodeShadow" x="-40%" y="-40%" width="180%" height="180%">
      <feDropShadow dx="0" dy="1.5" stdDeviation="2.4" flood-color="#000000" flood-opacity="0.38"/>
    </filter>
    <linearGradient id="melPlate" x1="0" y1="202" x2="0" y2="298" gradientUnits="userSpaceOnUse">
      <stop offset="0%" stop-color="#2b1a10"/>
      <stop offset="55%" stop-color="#170d07"/>
      <stop offset="100%" stop-color="#0b0604"/>
    </linearGradient>
    <radialGradient id="melHeat" gradientUnits="userSpaceOnUse" cx="690" cy="272" r="62">
      <stop offset="0%" stop-color="#c2410c" stop-opacity="0.72"/>
      <stop offset="45%" stop-color="#9a3412" stop-opacity="0.38"/>
      <stop offset="100%" stop-color="#7c2d12" stop-opacity="0"/>
    </radialGradient>
    <linearGradient id="melBezel" x1="0" y1="202" x2="0" y2="298" gradientUnits="userSpaceOnUse">
      <stop offset="0%" stop-color="#fed7aa"/>
      <stop offset="45%" stop-color="#b45309"/>
      <stop offset="100%" stop-color="#571c07"/>
    </linearGradient>
    <clipPath id="melClip">
      <path d="M690 202 L731.6 226 L731.6 274 L690 298 L648.4 274 L648.4 226 Z"/>
    </clipPath>
    <style>
      .mel-plate{fill:url(#melPlate)}
      .mel-rock{fill:#050302}
      .mel-ridge{fill:none;stroke:#fdba74;stroke-opacity:.7;stroke-width:1.3;stroke-linejoin:round;stroke-linecap:round}
      .mel-facet{fill:#070302}
      .mel-tin{stroke:#000;stroke-opacity:.4;stroke-width:.6;stroke-linejoin:round}
      .mel-edge{fill:none;stroke:url(#melBezel);stroke-width:2.4;stroke-linejoin:miter}
      .mel-groove{fill:none;stroke:#05070b;stroke-opacity:.5;stroke-width:1}
      .mel-hairline{fill:none;stroke:#2b333d;stroke-opacity:.55;stroke-width:1}
    </style>
  </defs>

  <g filter="url(#nodeShadow)">
    <path d="M690 202 L731.6 226 L731.6 274 L690 298 L648.4 274 L648.4 226 Z" class="mel-plate"/>
  </g>
  <g clip-path="url(#melClip)">
    <path d="M690 202 L731.6 226 L731.6 274 L690 298 L648.4 274 L648.4 226 Z" fill="url(#melHeat)"/>
    <path d="M660 274 L678 228 L690 248 L702 216 L720 274 Z" class="mel-rock"/>
    <path d="M702 216 L720 274 L702 274 Z" class="mel-facet"/>
    <polygon points="660,274 678,228 684,274" fill="#170b05" class="mel-tin"/>
    <polygon points="678,228 690,248 684,274" fill="#0e0703" class="mel-tin"/>
    <polygon points="690,248 692,274 684,274" fill="#241109" class="mel-tin"/>
    <polygon points="690,248 702,216 692,274" fill="#331a0d" class="mel-tin"/>
    <polygon points="702,216 702,274 692,274" fill="#20100a" class="mel-tin"/>
    <path d="M660 274 L678 228 L690 248 L702 216 L720 274" class="mel-ridge"/>
  </g>
  <path d="M690 202 L731.6 226 L731.6 274 L690 298 L648.4 274 L648.4 226 Z" class="mel-edge"/>
  <path d="M690 204.8 L729.2 227.4 L729.2 272.6 L690 295.2 L650.8 272.6 L650.8 227.4 Z" class="mel-groove"/>
  <path d="M690 200.4 L733 225.2 L733 274.8 L690 299.6 L647 274.8 L647 225.2 Z" class="mel-hairline"/>
</svg>
